<svg xmlns="http://www.w3.org/2000/svg" viewBox="0 0 78.67 78.7"><defs><style>.cls-1{fill:#448ef6;}</style></defs><g id="Layer_2" data-name="Layer 2"><g id="Layer_1-2" data-name="Layer 1"><path class="cls-1" d="M3.29,29.31c2.86,4.84,5.34,9,10.12,9s7.25-4.18,10.12-9c3-5.15,6.5-11,13.56-11s10.52,5.84,13.56,11c2.87,4.84,5.34,9,10.12,9s7.26-4.18,10.13-9A42.87,42.87,0,0,1,75.14,23,39.34,39.34,0,0,0,2,27.1C2.41,27.83,2.85,28.58,3.29,29.31Z"/><path class="cls-1" d="M13.41,56.63c4.78,0,7.25-4.18,10.12-9,3-5.15,6.5-11,13.56-11s10.52,5.83,13.56,11c2.87,4.85,5.34,9,10.12,9s7.26-4.18,10.13-9c2.07-3.49,4.32-7.3,7.77-9.39a39.34,39.34,0,0,0-1.84-10.86c-.84,1.22-1.65,2.58-2.49,4-3,5.15-6.5,11-13.57,11s-10.51-5.83-13.56-11c-2.86-4.84-5.34-9-10.12-9s-7.26,4.18-10.12,9c-3,5.15-6.5,11-13.56,11-6.5,0-9.94-4.94-12.82-9.74A39.62,39.62,0,0,0,0,39.35c0,1.13.06,2.24.15,3.34C1.31,44.26,2.32,46,3.29,47.6,6.15,52.45,8.63,56.63,13.41,56.63Z"/><path class="cls-1" d="M74.34,49.64c-3,5.15-6.5,11-13.57,11s-10.51-5.84-13.56-11c-2.86-4.84-5.34-9-10.12-9s-7.26,4.18-10.12,9c-3,5.15-6.5,11-13.56,11-4.72,0-7.83-2.61-10.28-5.88a39.35,39.35,0,0,0,75.34-11.2A37.72,37.72,0,0,0,74.34,49.64Z"/></g></g></svg>